# xmcd
#
# Track frame offsets: 
#        150
#        13750
#        29568
#        41295
#        57920
#        70648
#        85972
#        98556
#        112824
#        124430
#        139193
#        152657
#        169638
#        181788
#        195152
#        208941
#        225123
#        239285
#
# Disc length: 3365 seconds
#
# Revision: 2
# Processed by: cddbd v1.5.2PL0 Copyright (c) Steve Scherf et al.
# Submitted via: ExactAudioCopy v1.1
#
DISCID=de0d2312
DTITLE=Frank Sinatra - In The Wee Small Hours [CD 3)
DYEAR=1956
DGENRE=Jazz
TTITLE0=In The Wee Small Hours of the Morning
TTITLE1=Mood Indigo
TTITLE2=Glad To Be Unhappy
TTITLE3=I Get Along Without You Very Well
TTITLE4=Deep in a Dream
TTITLE5=I See Your Face Before Me
TTITLE6=Can't We Be Friends
TTITLE7=When Your Lover Has Gone
TTITLE8=What Is This Thing Called Love?
TTITLE9=Last Night When We Were
TTITLE10=I'll Be Around
TTITLE11=Ill Wind
TTITLE12=It Never Entered My Mind
TTITLE13=Dancing on the Ceiling
TTITLE14=I'll Never Be the Same
TTITLE15=This Love of Mine
TTITLE16=Three Coins in the Fountain (bonus track)
TTITLE17=Young at Heart (bonus track)
EXTD=YEAR: 1956
EXTT0=
EXTT1=
EXTT2=
EXTT3=
EXTT4=
EXTT5=
EXTT6=
EXTT7=
EXTT8=
EXTT9=
EXTT10=
EXTT11=
EXTT12=
EXTT13=
EXTT14=
EXTT15=
EXTT16=
EXTT17=
PLAYORDER=
